<svg viewBox="0 0 24 24" xmlns="http://www.w3.org/2000/svg" role="img" aria-label="Discord">
  <circle cx="12" cy="12" r="11" fill="#5865F2"/>
  <path d="M16.13 8.09c1.04 0.16 2 0.46 2.88 0.9 1.55 2.3 2.1 4.58 1.84 6.81-0.84 0.62-1.66 1.07-2.47 1.35a9.9 9.9 0 0 1-0.96-1.55c0.5-0.19 0.96-0.42 1.38-0.68a0.09 0.09 0 0 0 0.01-0.15 8.72 8.72 0 0 1-0.27-0.21 0.1 0.1 0 0 0-0.1-0.01c-2.67 1.19-5.57 1.19-8.26 0a0.1 0.1 0 0 0-0.1 0.01c-0.09 0.08-0.18 0.15-0.27 0.22a0.09 0.09 0 0 0 0.01 0.15c0.42 0.26 0.89 0.49 1.38 0.68-0.27 0.53-0.59 1.05-0.96 1.55a0.1 0.1 0 0 1-0.11 0.04 11.73 11.73 0 0 1-2.46-1.35c-0.31-2.56 0.53-4.83 1.84-6.81 0.88-0.43 1.84-0.73 2.88-0.9 0.04 0 0.07 0.02 0.09 0.05 0.12 0.21 0.25 0.49 0.34 0.72-1.2-0.17-2.4-0.17-3.57 0 0.09-0.24 0.22-0.51 0.34-0.72a0.09 0.09 0 0 1 0.09-0.05c1.09-0.16 2.31-0.16 3.58 0a6.3 6.3 0 0 1 0.34-0.72 0.09 0.09 0 0 1 0.09-0.05zM9.95 14.19c0.84 0 1.51-0.77 1.51-1.73 0-0.95-0.67-1.72-1.51-1.72-0.84 0-1.51 0.77-1.51 1.72 0 0.96 0.67 1.73 1.51 1.73zm4.11 0c0.84 0 1.51-0.77 1.51-1.73 0-0.95-0.67-1.72-1.51-1.72-0.84 0-1.51 0.77-1.51 1.72 0 0.96 0.67 1.73 1.51 1.73z" fill="#FFFFFF"/>
</svg>
