<svg viewBox="0 0 24 24" xmlns="http://www.w3.org/2000/svg" role="img" aria-label="Telegram">
  <circle cx="12" cy="12" r="11" fill="#36AEE2"/>
  <path d="M18.42 7.77c0.12 0.09 0.2 0.23 0.23 0.38 0.05 0.27-0.15 1.78-0.85 6.3-0.29 1.88-0.59 2.3-1.3 2.3-0.48 0-1.22-0.41-2.17-1.1-0.58-0.43-1.13-0.83-1.59-1.15-1.1-0.76-1.22-0.99-0.3-1.9 0.26-0.26 1.53-1.45 2.22-2.13 0.28-0.27 0.5-0.49 0.58-0.57 0.18-0.17 0.22-0.42-0.15-0.3-0.53 0.18-3.76 2.31-4.83 3.05-0.81 0.56-1.55 0.31-2.58-0.03-0.42-0.14-0.81-0.27-1.17-0.37-0.99-0.3-1-0.97 0.22-1.45 3.01-1.2 5.31-2.15 6.9-2.85 3.03-1.34 3.67-1.57 4.13-1.57 0.32 0 0.54 0.1 0.69 0.21z" fill="#FFFFFF"/>
</svg>
