<svg width="64" height="64" viewBox="0 0 64 64" fill="none" xmlns="http://www.w3.org/2000/svg">
  <rect width="64" height="64" rx="16" fill="#07C160"/>
  <path d="M33.6 16C23.3 16 15 22.7 15 30.9C15 35.7 17.9 40 22.6 42.7L20.8 48L27.2 44.8C29.2 45.2 31.3 45.4 33.6 45.4C43.9 45.4 52.2 38.7 52.2 30.5C52.2 22.3 43.9 16 33.6 16Z" fill="white"/>
  <path d="M31.8 28.5C31.8 29.5 30.9 30.4 29.8 30.4C28.7 30.4 27.8 29.5 27.8 28.5C27.8 27.4 28.7 26.5 29.8 26.5C30.9 26.5 31.8 27.4 31.8 28.5Z" fill="#07C160"/>
  <path d="M39.7 28.5C39.7 29.5 38.8 30.4 37.7 30.4C36.6 30.4 35.7 29.5 35.7 28.5C35.7 27.4 36.6 26.5 37.7 26.5C38.8 26.5 39.7 27.4 39.7 28.5Z" fill="#07C160"/>
  <path d="M46.8 36.9C46.8 32.2 42 28.4 36.1 28.4C30.2 28.4 25.4 32.2 25.4 36.9C25.4 41.6 30.2 45.4 36.1 45.4C37.3 45.4 38.4 45.2 39.5 44.9L44.1 47L42.9 42.9C45.3 41.4 46.8 39.3 46.8 36.9Z" fill="#9BE9BE"/>
  <path d="M34.3 36.2C34.3 36.9 33.6 37.5 32.8 37.5C32 37.5 31.3 36.9 31.3 36.2C31.3 35.4 32 34.8 32.8 34.8C33.6 34.8 34.3 35.4 34.3 36.2Z" fill="#07C160"/>
  <path d="M41.9 36.2C41.9 36.9 41.2 37.5 40.4 37.5C39.6 37.5 38.9 36.9 38.9 36.2C38.9 35.4 39.6 34.8 40.4 34.8C41.2 34.8 41.9 35.4 41.9 36.2Z" fill="#07C160"/>
</svg>
